<?xml version="1.0" encoding="utf-8"?>
<!-- Generator: Adobe Illustrator 21.0.0, SVG Export Plug-In . SVG Version: 6.00 Build 0)  -->
<svg version="1.1" id="Layer_1" xmlns="http://www.w3.org/2000/svg" xmlns:xlink="http://www.w3.org/1999/xlink" x="0px" y="0px"
	 viewBox="0 0 512 512" style="enable-background:new 0 0 512 512;" xml:space="preserve">
<style type="text/css">
	.st0{fill:#FFFFFF;}
</style>
<path class="st0" d="M166,346.4h271c6.7,0,12.6-5.1,14.4-12.5l60-241.9c1.3-5.2,0.4-10.8-2.4-15.1c-2.8-4.3-7.3-6.9-12-6.9H131.4
	l-10.7-55.6C119.1,6.5,113,0.9,106,0.9H15C6.7,0.9,0,8.6,0,18.2c0,9.6,6.7,17.3,15,17.3h79l54.2,280.7c-15.9,8-27.1,26.3-27.1,47.5
	c0,28.6,20.2,51.8,45,51.8h271c8.3,0,15-7.7,15-17.3c0-9.5-6.7-17.3-15-17.3H166c-8.3,0-15-7.7-15-17.3
	C151,354.2,157.7,346.4,166,346.4z"/>
<path class="st0" d="M151,467.4c0,25.1,20.2,45.6,45,45.6c24.8,0,45-20.4,45-45.6c0-25.1-20.2-45.6-45-45.6
	C171.2,421.8,151,442.2,151,467.4z"/>
<path class="st0" d="M362,467.4c0,25.1,20.2,45.6,45,45.6c24.8,0,45-20.4,45-45.6c0-25.1-20.2-45.6-45-45.6
	C382.2,421.8,362,442.2,362,467.4z"/>
</svg>
