<?xml version="1.0" encoding="utf-8"?>
<!-- Generator: Adobe Illustrator 21.0.0, SVG Export Plug-In . SVG Version: 6.00 Build 0)  -->
<svg version="1.1" id="Capa_1" xmlns="http://www.w3.org/2000/svg" xmlns:xlink="http://www.w3.org/1999/xlink" x="0px" y="0px"
	 viewBox="0 0 512 512" style="enable-background:new 0 0 512 512;" xml:space="preserve">
<style type="text/css">
	.st0{fill:#FFFFFF;}
</style>
<g>
	<g>
		<path class="st0" d="M84.2,101c-6.9,9.8-11.8,11.5-11.8,3.3v-15c0-21.5-16.2-38.9-36.2-38.9S0,67.8,0,89.3v133.4
			c0,21.5,16.2,38.9,36.2,38.9h124.1c20,0,36.2-17.4,36.2-38.9s-16.2-38.9-36.2-38.9c0,0-6,0-13.4,0c-7.4,0-9.5-9.1-3.2-19.3
			c28.5-46.5,77.3-75.5,130-75.5c85.7,0,155.5,75,155.5,167.1c0,92.1-69.8,167.1-155.5,167.1c-22.8,0-41.4,19.9-41.4,44.5
			c0,24.6,18.5,44.5,41.4,44.5C405.1,512,512,397.2,512,256C512,114.9,405.1,0,273.7,0C198.6,0,128.7,38.4,84.2,101z"/>
	</g>
</g>
</svg>
