<?xml version="1.0" encoding="utf-8"?>
<!-- Generator: Adobe Illustrator 21.0.0, SVG Export Plug-In . SVG Version: 6.00 Build 0)  -->
<svg version="1.1" id="Capa_1" xmlns="http://www.w3.org/2000/svg" xmlns:xlink="http://www.w3.org/1999/xlink" x="0px" y="0px"
	 viewBox="0 0 256.3 256.3" style="enable-background:new 0 0 256.3 256.3;" xml:space="preserve">
<style type="text/css">
	.st0{fill:#FFFFFF;}
</style>
<g>
	<path class="st0" d="M163.1,247.1c-8.2,8.1-21.4,8.1-29.5,0l-115-107.6c-6.4-6-14.1-17.4-14.6-26.2C2.4,89.5,3.5,44.1,4.2,20
		c0.3-8.8,7.7-16.1,16.5-16.4C51.5,2.9,116.9,2.2,123,8.2l126.6,114.3c8.1,8.1,0.8,28.6-7.4,36.8L163.1,247.1z M62.3,38.5
		c-6.9-6.9-18-6.9-25,0c-6.9,6.9-6.9,18,0,24.9c6.9,6.9,18.1,6.9,25,0C69.2,56.6,69.2,45.4,62.3,38.5z"/>
</g>
</svg>
