<?xml version="1.0" encoding="utf-8"?>
<!-- Generator: Adobe Illustrator 19.0.0, SVG Export Plug-In . SVG Version: 6.00 Build 0)  -->
<svg version="1.1" id="Layer_1" xmlns="http://www.w3.org/2000/svg" xmlns:xlink="http://www.w3.org/1999/xlink" x="0px" y="0px"
	 viewBox="0 0 312.7 356.2" style="enable-background:new 0 0 312.7 356.2;" xml:space="preserve">
<rect x="103.7" y="0" width="107.7" height="24.7"/>
<rect x="0" y="41.2" width="312.8" height="25.3"/>
<path d="M27.9,88.7h24.3v218.8c0,0,1,23.4,25.2,23.3h162.8c0,0,20.6,1.9,21.7-24.2c1.2-26.1,0-217.6,0-217.6h24.8v238.3
	c0,0-0.1,24.4-22.5,27.7c-22.4,3.3-214.7,0-214.7,0s-19-1.9-21.4-26.7S27.9,88.7,27.9,88.7z"/>
<rect x="103.8" y="117" width="24.6" height="176.4"/>
<rect x="186.1" y="117" width="24.6" height="176.4"/>
</svg>
