<?xml version="1.0" encoding="utf-8"?>
<!-- Generator: Adobe Illustrator 19.0.0, SVG Export Plug-In . SVG Version: 6.00 Build 0)  -->
<svg version="1.1" id="Layer_1" xmlns="http://www.w3.org/2000/svg" xmlns:xlink="http://www.w3.org/1999/xlink" x="0px" y="0px"
	 viewBox="-49 141 512 512" style="enable-background:new -49 141 512 512;" xml:space="preserve">
<style type="text/css">
	.st0{fill:#FFFFFF;}
</style>
<path class="st0" d="M347,253.6l-108-108c-3-3-6.9-4.6-11-4.6H71.6C63,141,56,148,56,156.6V246h-89.4c-8.6,0-15.6,7-15.6,15.6v375.8
	c0,8.6,7,15.6,15.6,15.6h264.4c8.6,0,15.6-7,15.6-15.6V548H336c8.6,0,15.6-7,15.6-15.6V264.6C351.5,260.6,350,256.6,347,253.6z
	 M320.4,516.8h-73.9V369.6c0-4-1.6-8-4.6-11l-108-108c-2.9-2.9-6.9-4.6-11-4.6H87.2v-73.9h125.2v92.4c0,8.6,7,15.6,15.6,15.6h92.4
	V516.8z M215.4,621.8H-17.8V277.2h125.2v92.4c0,8.6,7,15.6,15.6,15.6h92.4V621.8z M138.5,299.2l54.8,54.8h-54.8V299.2z M298.4,249
	h-54.8v-54.8C250.4,201,292.9,243.6,298.4,249z"/>
</svg>
