<?xml version="1.0" encoding="utf-8"?>
<!-- Generator: Adobe Illustrator 19.0.0, SVG Export Plug-In . SVG Version: 6.00 Build 0)  -->
<svg version="1.1" id="Layer_1" xmlns="http://www.w3.org/2000/svg" xmlns:xlink="http://www.w3.org/1999/xlink" x="0px" y="0px"
	 viewBox="-266 386 22.9 23" style="enable-background:new -266 386 22.9 23;" xml:space="preserve">
<style type="text/css">
	.st0{fill:#FFFFFF;fill-opacity:0;}
</style>
<g id="sort" transform="translate(213 -295)">
	<rect id="Rectangle_1" x="-493" y="667" class="st0" width="50" height="50"/>
	<g id="sort-2" transform="translate(-199.533 309)">
		<g id="Group_1" transform="translate(0.533 0)">
			<path id="Path_1" d="M-267.8,387.3c-0.4-0.3-1-0.3-1.4,0.1l-3.6,4.1v-16.3c0-0.5-0.4-1-1-1c-0.5,0-1,0.4-1,1v16.3l-3.6-4.1
				c-0.4-0.4-1-0.4-1.4-0.1c-0.4,0.4-0.4,1-0.1,1.4l5.3,5.9c0.3,0.4,0.9,0.5,1.3,0.2c0.1,0,0.1-0.1,0.2-0.2l5.4-5.9
				C-267.3,388.2-267.4,387.6-267.8,387.3z"/>
			<path id="Path_2" d="M-257.3,378.3l-5.3-5.9c-0.3-0.4-0.9-0.5-1.3-0.2c-0.1,0.1-0.1,0.1-0.2,0.2l-5.4,5.9c-0.3,0.4-0.3,1,0.1,1.4
				c0.4,0.4,1,0.3,1.3-0.1c0,0,0,0,0,0l3.6-4.1v16.2c0,0.5,0.4,1,1,1c0.5,0,1-0.4,1-0.9c0,0,0,0,0,0v-16.3l3.6,4.1
				c0.3,0.4,1,0.5,1.4,0.1C-257,379.3-257,378.7-257.3,378.3C-257.3,378.3-257.3,378.3-257.3,378.3L-257.3,378.3z"/>
		</g>
	</g>
</g>
</svg>
