<?xml version="1.0" encoding="utf-8"?>
<!-- Generator: Adobe Illustrator 19.0.0, SVG Export Plug-In . SVG Version: 6.00 Build 0)  -->
<svg version="1.1" id="Layer_1" xmlns="http://www.w3.org/2000/svg" xmlns:xlink="http://www.w3.org/1999/xlink" x="0px" y="0px"
	 viewBox="0 0 525.2 477.7" style="enable-background:new 0 0 525.2 477.7;" xml:space="preserve">
<style type="text/css">
	.st0{clip-path:url(#SVGID_2_);fill:#44467F;}
</style>
<g>
	<defs>
		<rect id="SVGID_1_" width="525.2" height="477.7"/>
	</defs>
	<clipPath id="SVGID_2_">
		<use xlink:href="#SVGID_1_"  style="overflow:visible;"/>
	</clipPath>
	<path class="st0" d="M31.1,424.9L64.8,439V212L3.6,359.3C-6.7,385,5.7,414.4,31.1,424.9 M521.4,331.9l-124.7-301
		C388.9,12.1,370.5,0.5,351.2,0c-6.6,0-13.3,1-19.9,3.7L146,80.4c-18.9,7.8-30.5,25.9-31,45.3c-0.2,6.8,1,13.6,3.8,20.1l124.7,301
		c7.7,19.1,26.3,30.7,46,30.9c6.5,0,13-1.2,19.3-3.8L494,397.3C519.6,386.7,531.9,357.3,521.4,331.9 M165.6,150.9
		c-13.8,0-25.1-11.3-25.1-25.1c0-13.8,11.3-25.1,25.1-25.1s25.2,11.3,25.2,25.1C190.7,139.5,179.4,150.9,165.6,150.9 M115.3,427.4
		c0,27.7,22.6,50.3,50.3,50.3h36.5L115.3,268L115.3,427.4L115.3,427.4z"/>
</g>
</svg>
